<?xml version="1.0" encoding="UTF-8" standalone="no" ?>
<!DOCTYPE svg PUBLIC "-//W3C//DTD SVG 1.1//EN" "http://www.w3.org/Graphics/SVG/1.1/DTD/svg11.dtd">
<svg xmlns="http://www.w3.org/2000/svg" xmlns:xlink="http://www.w3.org/1999/xlink" version="1.1" width="1280" height="1024" viewBox="0 0 1280 1024" xml:space="preserve">
<desc>Created with Fabric.js 3.1.0</desc>
<defs>
</defs>
<g transform="matrix(1.9692780337941629 0 0 1.9692780337941629 640.0153846153846 512.012312418764)" id="background-logo"  >
<rect style="stroke: none; stroke-width: 1; stroke-dasharray: none; stroke-linecap: butt; stroke-dashoffset: 0; stroke-linejoin: miter; stroke-miterlimit: 4; fill: rgb(0,0,0); fill-rule: nonzero; opacity: 1;"  paint-order="stroke"  x="-325" y="-260" rx="0" ry="0" width="650" height="520" />
</g>
<g transform="matrix(1.9692780337941629 0 0 1.9692780337941629 641.4000332328961 657.2821723964314)" id="text-logo-path"  >
<path style="stroke: none; stroke-width: 0; stroke-dasharray: none; stroke-linecap: butt; stroke-dashoffset: 0; stroke-linejoin: miter; stroke-miterlimit: 4; fill: rgb(255,255,255); fill-rule: nonzero; opacity: 1;"  paint-order="stroke"  transform=" translate(-208.79, 21.564999999999998)" d="M 21.41 0 L 4.1 0 L 4.1 -41.48 L 21.41 -41.48 L 21.41 0 Z M 21.41 -46.64 L 4.1 -46.64 L 4.1 -57.66 L 21.41 -57.66 L 21.41 -46.64 Z M 39.65 0 L 29.26 -10.35 L 29.26 -41.48 L 39.65 -51.84 L 52.97 -51.84 L 52.97 -41.48 L 46.52 -41.48 L 46.52 -10.35 L 60.2 -10.35 L 77.03 5.55 L 67.77 14.53 L 52.58 0 L 39.65 0 Z M 62.11 -41.48 L 55.63 -41.48 L 55.63 -51.84 L 69.02 -51.84 L 79.38 -41.48 L 79.38 -10.35 L 71.91 -2.81 L 62.11 -11.88 L 62.11 -41.48 Z M 124.96 -19.57 L 90.47 -19.57 L 90.47 -28.91 L 124.96 -28.91 L 124.96 -19.57 Z M 179.26 -40.55 L 134.26 -40.55 L 134.26 -51.84 L 179.26 -51.84 L 179.26 -40.55 Z M 165.74 0 L 147.77 0 L 147.77 -37.85 L 165.74 -37.85 L 165.74 0 Z M 202.62 0 L 185.35 0 L 185.35 -57.3 L 202.62 -57.3 L 202.62 0 Z M 212.97 -31.13 L 205.35 -31.13 L 205.35 -36.37 L 210.43 -41.48 L 219.88 -41.48 L 230.27 -31.13 L 230.27 0 L 212.97 0 L 212.97 -31.13 Z M 255.39 0 L 238.09 0 L 238.09 -41.48 L 255.39 -41.48 L 255.39 0 Z M 255.39 -46.64 L 238.09 -46.64 L 238.09 -57.66 L 255.39 -57.66 L 255.39 -46.64 Z M 280.98 0 L 263.55 0 L 263.55 -41.48 L 280.98 -41.48 L 280.98 0 Z M 291.21 -31.13 L 283.79 -31.13 L 283.79 -35.66 L 289.57 -41.48 L 299.18 -41.48 L 308.52 -32.15 L 308.52 0 L 291.21 0 L 291.21 -31.13 Z M 326.52 0 L 316.17 -10.35 L 316.17 -31.13 L 326.52 -41.48 L 333.44 -41.48 L 333.44 -9.69 L 341.09 -9.69 L 341.09 -5.12 L 335.94 0 L 326.52 0 Z M 322.77 9.3 L 322.77 5.47 L 343.83 5.47 L 343.83 -31.13 L 336.17 -31.13 L 336.17 -41.48 L 350.74 -41.48 L 361.09 -31.13 L 361.09 4.1 L 350.74 14.53 L 327.97 14.53 L 322.77 9.3 Z M 375.7 -0.04 L 368.52 -8.55 L 368.52 -11.88 L 385.82 -11.88 L 385.82 -7.62 L 393.48 -7.62 L 393.48 0 L 375.7 -0.04 Z M 377.54 -15.66 L 368.55 -24.3 L 368.55 -32.19 L 377.89 -41.48 L 384.8 -41.48 L 384.8 -26.84 L 404.49 -26.84 L 413.48 -17.77 L 413.48 -9.69 L 403.83 0 L 396.21 0 L 396.21 -15.66 L 377.54 -15.66 Z M 396.21 -33.87 L 387.54 -33.87 L 387.54 -41.48 L 405.9 -41.48 L 412.07 -35.31 L 412.07 -30.63 L 396.21 -30.63 L 396.21 -33.87 Z" stroke-linecap="round" />
</g>
<g transform="matrix(1.9692780337941629 0 0 1.9692780337941629 672.0033934825675 783.2801650846034)" id="tagline-2581340a-48b6-4248-95ae-816818716cac-logo-path"  >
<path style="stroke: none; stroke-width: 0; stroke-dasharray: none; stroke-linecap: butt; stroke-dashoffset: 0; stroke-linejoin: miter; stroke-miterlimit: 4; fill: rgb(127,216,88); fill-rule: nonzero; opacity: 1;"  paint-order="stroke"  transform=" translate(-239.03, 10.809999999999999)" d="M 5.98 -0.04 L 1.89 -0.04 L 15.14 -28.68 Q 12.56 -28.28 10.89 -27.73 Q 9.22 -27.17 8.25 -26.01 L 8.25 -26.01 Q 7.58 -25.26 7.56 -23.64 L 7.56 -23.64 Q 7.56 -23.26 7.6 -22.84 L 7.6 -22.84 Q 7.81 -20.62 8.94 -18.62 L 8.94 -18.62 L 3.09 -15.96 Q 2.94 -17.36 2.94 -18.64 L 2.94 -18.64 Q 2.94 -21.14 3.49 -23.2 L 3.49 -23.2 Q 4.3 -26.31 6.19 -28.11 L 6.19 -28.11 Q 8.88 -30.7 14.07 -31.77 L 14.07 -31.77 Q 15.37 -32.04 16.89 -32.17 Q 18.41 -32.29 19.46 -32.31 Q 20.51 -32.33 22.57 -32.33 L 22.57 -32.33 L 19.95 -11.23 L 32.08 -32.25 L 37.58 -32.29 L 31.1 0 L 25.11 -0.04 L 29.58 -19.82 L 18.31 -0.04 L 12.93 -0.04 L 15.05 -19.74 L 5.98 -0.04 Z M 35.5 -7.39 L 35.5 -7.39 Q 35.69 -9.55 36.21 -11.51 Q 36.72 -13.46 37.68 -15.27 Q 38.63 -17.09 39.92 -18.42 Q 41.22 -19.76 43.08 -20.6 Q 44.95 -21.44 47.2 -21.5 L 47.2 -21.5 L 58.08 -21.5 L 57.74 -19.86 Q 57.07 -16.48 56.04 -11.69 Q 55.01 -6.91 54.53 -4.51 L 54.53 -4.51 Q 54.42 -3.99 54.42 -3.59 L 54.42 -3.59 Q 54.42 -2.29 55.45 -2.18 L 55.45 -2.18 Q 55.56 -2.18 55.64 -2.18 L 55.64 -2.18 Q 56.79 -2.18 58.45 -3.55 L 58.45 -3.55 Q 60.47 -5.21 61.22 -7.24 L 61.22 -7.24 Q 61.25 -7.31 61.27 -7.35 L 61.27 -7.35 L 62.95 -7.35 Q 61.6 -3.78 58.52 -1.57 L 58.52 -1.57 Q 55.95 0.25 53.48 0.25 L 53.48 0.25 Q 53.35 0.25 53.2 0.25 L 53.2 0.25 Q 50.64 0.17 49.61 -1.97 L 49.61 -1.97 Q 49.17 -2.86 49.09 -4.05 L 49.09 -4.05 Q 48.25 -2.81 47.17 -1.89 Q 46.09 -0.97 44.95 -0.46 L 44.95 -0.46 Q 43.82 0.04 42.6 0.21 L 42.6 0.21 Q 42.08 0.27 41.57 0.29 L 41.57 0.29 Q 40.9 0.29 40.29 0.17 L 40.29 0.17 Q 39.2 -0.04 38.25 -0.64 Q 37.31 -1.24 36.65 -2.15 Q 35.99 -3.07 35.67 -4.41 L 35.67 -4.41 Q 35.46 -5.33 35.46 -6.38 L 35.46 -6.38 Q 35.46 -6.89 35.5 -7.39 Z M 41.66 -7.18 L 41.66 -7.18 Q 41.66 -6.97 41.66 -6.76 L 41.66 -6.76 Q 41.64 -5.42 41.89 -4.47 L 41.89 -4.47 Q 42.18 -3.4 42.83 -2.9 L 42.83 -2.9 Q 43.29 -2.54 43.9 -2.52 L 43.9 -2.52 Q 44.11 -2.52 44.36 -2.58 L 44.36 -2.58 Q 45.25 -2.77 46.52 -3.86 Q 47.79 -4.96 49.24 -6.89 L 49.24 -6.89 L 51.29 -17.55 Q 50.22 -19.51 48.65 -19.51 L 48.65 -19.51 Q 48.25 -19.51 47.81 -19.38 L 47.81 -19.38 Q 45.9 -18.81 44.22 -16.08 L 44.22 -16.08 Q 42.75 -13.73 42.1 -10.71 L 42.1 -10.71 Q 41.7 -8.78 41.66 -7.18 Z M 65.55 0 L 59.54 0 L 65.51 -30.11 L 71.32 -30.11 Q 70.78 -27.15 69.79 -22.31 Q 68.8 -17.47 68.38 -15.22 L 68.38 -15.22 Q 71.45 -19.44 74.03 -20.93 L 74.03 -20.93 Q 75.33 -21.73 76.36 -21.71 L 76.36 -21.71 Q 77.14 -21.71 77.79 -21.27 L 77.79 -21.27 Q 78.99 -20.41 78.99 -18.43 L 78.99 -18.43 Q 78.99 -18.37 78.99 -18.31 L 78.99 -18.31 Q 78.95 -15.68 76.85 -13.23 L 76.85 -13.23 Q 74.89 -10.92 71.66 -9.55 L 71.66 -9.55 L 77.77 0 L 71.66 0 L 66.89 -7.39 L 65.55 0 Z M 67.8 -11.82 L 67.36 -9.76 Q 68.05 -9.99 68.57 -10.27 L 68.57 -10.27 Q 72.1 -11.74 74.22 -14.74 L 74.22 -14.74 Q 75.61 -16.71 75.61 -18.1 L 75.61 -18.1 Q 75.61 -19.04 74.91 -19.04 L 74.91 -19.04 Q 74.87 -19.04 74.83 -19.04 L 74.83 -19.04 Q 74.47 -19.02 73.99 -18.75 L 73.99 -18.75 Q 73.3 -18.37 72.35 -17.43 Q 71.41 -16.48 70.74 -15.64 Q 70.06 -14.8 69.08 -13.5 Q 68.09 -12.2 67.8 -11.82 L 67.8 -11.82 Z M 79.41 -7.87 L 79.41 -7.87 L 82.24 -21.5 L 88.16 -21.5 Q 87.39 -17.41 86.29 -12.02 Q 85.2 -6.63 84.82 -4.72 L 84.82 -4.72 Q 84.72 -4.16 84.7 -3.72 L 84.7 -3.72 Q 84.7 -2.33 85.77 -2.25 L 85.77 -2.25 Q 85.85 -2.25 85.96 -2.25 L 85.96 -2.25 Q 87.13 -2.25 88.81 -3.65 L 88.81 -3.65 Q 90.85 -5.35 91.65 -7.47 L 91.65 -7.47 L 91.69 -7.6 L 93.37 -7.6 Q 92.03 -3.93 88.9 -1.64 L 88.9 -1.64 Q 86.27 0.27 83.71 0.27 L 83.71 0.27 Q 83.63 0.27 83.54 0.27 L 83.54 0.27 Q 80.88 0.21 79.76 -1.99 L 79.76 -1.99 Q 79.09 -3.28 79.09 -5.12 L 79.09 -5.12 Q 79.09 -6.36 79.41 -7.87 Z M 82.7 -27.25 L 82.7 -27.25 Q 82.77 -28.68 83.69 -29.67 L 83.69 -29.67 Q 84.74 -30.65 86.15 -30.65 L 86.15 -30.65 Q 87.53 -30.65 88.52 -29.67 L 88.52 -29.67 Q 89.55 -28.64 89.55 -27.25 Q 89.55 -25.87 88.48 -24.86 L 88.48 -24.86 Q 87.47 -23.91 86.02 -23.91 L 86.02 -23.91 Q 84.55 -23.91 83.61 -24.86 L 83.61 -24.86 Q 82.7 -25.83 82.7 -27.25 Z M 96.25 0 L 90.16 0 L 94.5 -21.5 L 100.38 -21.5 L 99.73 -18.27 Q 100.87 -19.55 102.28 -20.42 Q 103.7 -21.29 105.04 -21.56 L 105.04 -21.56 Q 105.72 -21.69 106.39 -21.69 L 106.39 -21.69 Q 107.02 -21.69 107.65 -21.56 L 107.65 -21.56 Q 108.91 -21.29 109.73 -20.32 Q 110.54 -19.36 110.88 -17.72 L 110.88 -17.72 Q 111.03 -17.03 111.03 -16.21 L 111.03 -16.21 Q 111.03 -15.08 110.75 -13.67 L 110.75 -13.67 Q 109.31 -6.19 109.03 -4.64 L 109.03 -4.64 Q 108.93 -4.05 108.93 -3.59 L 108.93 -3.59 Q 108.93 -2.18 109.96 -2.1 L 109.96 -2.1 Q 110.02 -2.1 110.08 -2.1 L 110.08 -2.1 Q 111.24 -2.1 112.88 -3.59 L 112.88 -3.59 Q 114.85 -5.38 115.56 -7.52 L 115.56 -7.52 L 117.24 -7.52 Q 115.69 -3.46 112.58 -1.28 L 112.58 -1.28 Q 110.33 0.27 108.21 0.27 L 108.21 0.27 Q 107.84 0.27 107.44 0.23 L 107.44 0.23 Q 105.04 -0.13 104.06 -2.44 L 104.06 -2.44 Q 103.49 -3.74 103.49 -5.5 L 103.49 -5.5 Q 103.49 -6.57 103.7 -7.79 L 103.7 -7.79 Q 103.95 -9.01 105.42 -16.82 L 105.42 -16.82 Q 105.53 -17.38 105.53 -17.83 L 105.53 -17.83 Q 105.53 -19.17 104.52 -19.23 L 104.52 -19.23 Q 104.46 -19.23 104.39 -19.23 L 104.39 -19.23 Q 103.22 -19.23 101.54 -17.76 L 101.54 -17.76 Q 99.75 -16.19 98.98 -14.28 L 98.98 -14.28 L 96.25 0 Z M 112.81 -7.6 L 112.81 -7.6 Q 113.06 -10.46 113.86 -12.83 Q 114.66 -15.2 115.76 -16.77 Q 116.86 -18.33 118.25 -19.43 Q 119.64 -20.53 120.99 -21.05 Q 122.34 -21.56 123.69 -21.63 L 123.69 -21.63 Q 125.33 -21.71 126.19 -21.71 L 126.19 -21.71 L 132.21 -21.71 L 135.82 -21.71 L 132.51 -5.5 Q 132.07 -3.09 131.64 -1.28 Q 131.2 0.52 130.48 2.54 Q 129.76 4.56 128.88 5.92 Q 128.01 7.29 126.69 8.47 Q 125.37 9.66 123.75 10.16 L 123.75 10.16 Q 122.26 10.65 120.24 10.65 L 120.24 10.65 Q 120.08 10.65 119.91 10.65 L 119.91 10.65 Q 117.7 10.6 115.04 9.85 L 115.04 9.85 L 119.01 5.71 Q 121.02 7.26 122.53 7.26 L 122.53 7.26 Q 123.27 7.26 123.9 6.89 L 123.9 6.89 L 124.07 6.19 L 126.06 -3.36 Q 124.91 -1.91 123.38 -1.01 Q 121.86 -0.1 120.33 0.15 L 120.33 0.15 Q 119.74 0.25 119.13 0.25 L 119.13 0.25 Q 118.23 0.25 117.37 0.02 L 117.37 0.02 Q 115.92 -0.36 114.85 -1.28 Q 113.78 -2.2 113.21 -3.86 L 113.21 -3.86 Q 112.77 -5.12 112.77 -6.66 L 112.77 -6.66 Q 112.77 -7.12 112.81 -7.6 Z M 119.07 -7.39 L 119.07 -7.39 Q 119.07 -7.14 119.07 -6.91 L 119.07 -6.91 Q 119.07 -5.56 119.32 -4.62 L 119.32 -4.62 Q 119.64 -3.51 120.29 -3 L 120.29 -3 Q 120.77 -2.65 121.38 -2.65 L 121.38 -2.65 Q 121.61 -2.65 121.88 -2.69 L 121.88 -2.69 Q 122.79 -2.9 124.06 -4 Q 125.33 -5.1 126.77 -7.05 L 126.77 -7.05 L 128.98 -17.93 Q 127.91 -19.93 126.29 -19.93 L 126.29 -19.93 Q 125.89 -19.93 125.47 -19.8 L 125.47 -19.8 Q 123.52 -19.25 121.8 -16.54 L 121.8 -16.54 Q 120.27 -14.13 119.55 -11 L 119.55 -11 Q 119.13 -9.03 119.07 -7.39 Z M 152.47 -18.71 L 146.68 -16 Q 146.45 -17.7 146.45 -19.23 L 146.45 -19.23 Q 146.45 -25.7 150.42 -28.89 L 150.42 -28.89 Q 153.9 -31.43 160.22 -32.12 L 160.22 -32.12 Q 162.47 -32.29 164.82 -32.29 L 164.82 -32.29 Q 166.02 -32.29 169.98 -32.31 Q 173.95 -32.33 175.86 -32.33 L 175.86 -32.33 L 174.62 -28.51 L 165.55 -28.51 L 163.92 -20.03 L 170.24 -20.03 L 169.12 -16.25 L 163.18 -16.25 L 160.6 -3.78 L 170.19 -3.78 L 169.12 0 L 153.94 0 L 159.74 -28.64 Q 157.07 -28.41 155.25 -27.97 Q 153.42 -27.53 152.31 -26.54 L 152.31 -26.54 Q 151.09 -25.49 151.07 -23.33 L 151.07 -23.33 Q 151.07 -21.08 152.47 -18.71 L 152.47 -18.71 Z M 179.77 0 L 173.81 0 L 173.85 -21.5 L 179.77 -21.5 L 179.68 -6.8 L 186.36 -21.5 L 189.93 -21.5 Q 188.94 -19.46 185.28 -11.54 Q 181.62 -3.61 179.77 0 L 179.77 0 Z M 187.94 -8.08 L 187.94 -8.08 Q 187.96 -10.25 188.63 -12.47 L 188.63 -12.47 Q 189.3 -14.74 190.5 -16.65 L 190.5 -16.65 Q 191.67 -18.48 193.29 -19.69 L 193.29 -19.69 Q 194.93 -20.93 196.48 -21.37 L 196.48 -21.37 Q 197.64 -21.69 198.71 -21.71 L 198.71 -21.71 Q 199.08 -21.71 199.46 -21.67 L 199.46 -21.67 Q 200.89 -21.5 201.81 -20.72 L 201.81 -20.72 Q 202.86 -19.88 203.31 -18.56 L 203.31 -18.56 Q 203.62 -17.59 203.62 -16.61 L 203.62 -16.61 Q 203.62 -16.23 203.58 -15.85 L 203.58 -15.85 Q 203.41 -14.47 202.76 -13.16 L 202.76 -13.16 Q 201.35 -10.62 198.92 -9.45 L 198.92 -9.45 Q 196.67 -8.38 194 -8.38 L 194 -8.38 Q 193.77 -8.38 193.52 -8.38 L 193.52 -8.38 Q 193.56 -6.66 194.22 -5.14 Q 194.89 -3.63 196.19 -3 L 196.19 -3 Q 197.24 -2.52 198.29 -2.52 L 198.29 -2.52 Q 199.59 -2.52 200.93 -3.28 L 200.93 -3.28 Q 203.33 -4.64 205.01 -7.39 L 205.01 -7.39 L 206.54 -7.39 Q 204.12 -2.94 201.39 -1.3 L 201.39 -1.3 Q 198.81 0.25 195.22 0.25 L 195.22 0.25 Q 194.99 0.25 194.76 0.25 L 194.76 0.25 Q 192.41 0.19 190.81 -0.97 L 190.81 -0.97 Q 189.22 -2.14 188.59 -3.99 L 188.59 -3.99 Q 187.92 -5.84 187.94 -8.08 Z M 193.65 -10.41 L 193.65 -10.41 Q 193.77 -10.41 193.9 -10.41 L 193.9 -10.41 Q 195.14 -10.41 196.19 -10.79 L 196.19 -10.79 Q 197.36 -11.21 198.1 -11.92 Q 198.83 -12.62 199.38 -13.51 Q 199.92 -14.4 200.18 -15.33 Q 200.43 -16.25 200.51 -17.05 L 200.51 -17.05 Q 200.53 -17.38 200.53 -17.68 L 200.53 -17.68 Q 200.53 -18.1 200.47 -18.43 L 200.47 -18.43 Q 200.37 -19.02 200.13 -19.21 L 200.13 -19.21 Q 199.84 -19.44 199.44 -19.44 L 199.44 -19.44 Q 198.92 -19.44 198.2 -19.04 L 198.2 -19.04 Q 196.94 -18.35 195.83 -16.61 L 195.83 -16.61 Q 194.4 -14.4 193.69 -10.88 L 193.69 -10.88 Q 193.69 -10.79 193.67 -10.63 Q 193.65 -10.48 193.65 -10.41 Z M 209.48 0 L 203.41 0 L 207.76 -21.5 L 213.66 -21.5 L 212.75 -16.82 Q 213.8 -18.58 214.99 -19.7 Q 216.18 -20.83 217.65 -21.37 L 217.65 -21.37 Q 218.57 -21.73 219.62 -21.73 L 219.62 -21.73 Q 220.21 -21.75 220.88 -21.63 L 220.88 -21.63 Q 222.68 -21.29 224.74 -20.07 L 224.74 -20.07 L 220.75 -16.78 Q 219.75 -17.51 218.7 -17.64 L 218.7 -17.64 Q 218.44 -17.66 218.21 -17.66 L 218.21 -17.66 Q 217.46 -17.68 216.76 -17.38 L 216.76 -17.38 Q 215.86 -17.01 214.95 -16.22 Q 214.03 -15.43 213.32 -14.51 Q 212.61 -13.58 211.89 -12.43 L 211.89 -12.43 L 209.48 0 Z M 223.23 9.89 L 223.23 9.89 L 227.32 5.75 Q 228 6.32 229 6.82 L 229 6.82 Q 229.99 7.31 231.02 7.31 L 231.02 7.31 Q 231.06 7.31 231.1 7.31 L 231.1 7.31 Q 232.2 7.29 232.41 6.19 L 232.41 6.19 L 234.25 -2.83 Q 232.83 -1.36 231.08 -0.52 Q 229.34 0.31 227.78 0.31 Q 226.21 0.31 224.96 -0.51 Q 223.71 -1.34 223.27 -3.19 L 223.27 -3.19 Q 223.06 -4.03 223.06 -5.08 L 223.06 -5.08 Q 223.06 -6.34 223.36 -7.87 L 223.36 -7.87 L 226.06 -21.5 L 232.17 -21.5 Q 231.46 -17.95 230.33 -12.38 Q 229.19 -6.8 228.77 -4.68 L 228.77 -4.68 Q 228.67 -4.09 228.67 -3.65 L 228.67 -3.65 Q 228.67 -2.31 229.7 -2.2 L 229.7 -2.2 Q 229.78 -2.2 229.84 -2.2 L 229.84 -2.2 Q 231 -2.2 232.7 -3.65 L 232.7 -3.65 Q 234.11 -4.85 234.97 -6.36 L 234.97 -6.36 L 238.03 -21.5 L 244.1 -21.5 L 240.87 -5.54 Q 240.51 -3.67 240.18 -2.22 Q 239.86 -0.76 239.37 0.9 Q 238.87 2.56 238.32 3.78 Q 237.76 5 236.96 6.24 Q 236.16 7.47 235.25 8.28 Q 234.34 9.09 233.1 9.73 Q 231.86 10.37 230.43 10.58 L 230.43 10.58 Q 229.59 10.71 228.65 10.71 L 228.65 10.71 Q 227.93 10.71 227.16 10.62 L 227.16 10.62 Q 225.33 10.48 223.23 9.89 Z M 251.72 -18.62 L 245.89 -15.92 Q 245.72 -17.66 245.72 -19.21 L 245.72 -19.21 Q 245.72 -22.05 246.28 -24.27 L 246.28 -24.27 Q 247.17 -27.67 248.88 -29.36 Q 250.59 -31.05 253.28 -31.73 L 253.28 -31.73 Q 255.4 -32.25 257.43 -32.25 L 257.43 -32.25 Q 257.98 -32.25 258.52 -32.21 L 258.52 -32.21 Q 261.11 -32.04 264.28 -31.35 L 264.28 -31.35 Q 265.92 -30.99 266.69 -30.82 Q 267.47 -30.65 268.92 -30.41 Q 270.37 -30.17 271.16 -30.13 L 271.16 -30.13 Q 271.56 -30.11 272.04 -30.12 Q 272.51 -30.13 273.1 -30.13 L 273.1 -30.13 Q 274.25 -30.17 274.99 -30.42 Q 275.72 -30.68 276.51 -31.15 Q 277.3 -31.62 277.86 -32.33 L 277.86 -32.33 L 280.19 -32.33 Q 278.91 -30.72 277.69 -29.58 Q 276.48 -28.45 275.26 -27.82 L 275.26 -27.82 Q 274.06 -27.21 272.97 -26.88 L 272.97 -26.88 Q 271.98 -26.58 270.79 -26.56 L 270.79 -26.56 Q 270.66 -26.58 270.53 -26.58 L 270.53 -26.58 Q 269.19 -26.62 268.1 -26.78 Q 267.01 -26.94 265.43 -27.29 L 265.43 -27.29 L 259.76 0 L 253.82 0 L 259.81 -28.26 Q 258.13 -28.49 256.66 -28.49 L 256.66 -28.49 Q 255.67 -28.49 254.79 -28.39 L 254.79 -28.39 Q 252.6 -28.11 251.39 -26.92 L 251.39 -26.92 Q 250.67 -26.27 250.5 -24.94 L 250.5 -24.94 Q 250.44 -24.5 250.44 -24 L 250.44 -24 Q 250.46 -23.05 250.67 -22 L 250.67 -22 Q 251.01 -20.37 251.72 -18.62 L 251.72 -18.62 Z M 278.89 -0.04 L 273.01 -0.04 L 279.12 -30.11 L 284.83 -30.11 L 282.54 -18.67 Q 283.91 -20.09 285.53 -20.9 Q 287.14 -21.71 288.57 -21.71 Q 290 -21.71 291.13 -20.91 L 291.13 -20.91 Q 292.29 -20.11 292.66 -18.31 L 292.66 -18.31 Q 292.83 -17.49 292.83 -16.48 L 292.83 -16.48 Q 292.83 -15.26 292.58 -13.75 L 292.58 -13.75 Q 291.34 -6.66 290.94 -4.64 L 290.94 -4.64 Q 290.84 -4.07 290.84 -3.63 L 290.84 -3.63 Q 290.84 -2.23 291.87 -2.16 L 291.87 -2.16 Q 291.95 -2.16 292.06 -2.16 L 292.06 -2.16 Q 293.19 -2.16 294.76 -3.57 L 294.76 -3.57 Q 296.72 -5.31 297.43 -7.43 L 297.43 -7.43 L 299.11 -7.43 Q 297.62 -3.3 294.32 -1.22 L 294.32 -1.22 Q 292.1 0.17 289.94 0.17 L 289.94 0.17 Q 289.47 0.17 289.01 0.1 L 289.01 0.1 Q 286.62 -0.23 285.63 -2.12 L 285.63 -2.12 Q 285.13 -3.11 285.13 -4.39 L 285.13 -4.39 Q 285.13 -5.04 285.25 -5.75 L 285.25 -5.75 Q 285.4 -6.57 286.16 -10.7 Q 286.91 -14.82 287.25 -16.82 L 287.25 -16.82 Q 287.37 -17.49 287.37 -17.97 L 287.37 -17.97 Q 287.37 -19.25 286.49 -19.27 L 286.49 -19.27 Q 286.47 -19.27 286.43 -19.27 L 286.43 -19.27 Q 285.38 -19.27 283.8 -17.7 L 283.8 -17.7 Q 282.67 -16.54 281.91 -15.14 L 281.91 -15.14 L 278.89 -0.04 Z M 296.13 -7.87 L 296.13 -7.87 L 298.96 -21.5 L 304.88 -21.5 Q 304.11 -17.41 303.02 -12.02 Q 301.92 -6.63 301.55 -4.72 L 301.55 -4.72 Q 301.44 -4.16 301.42 -3.72 L 301.42 -3.72 Q 301.42 -2.33 302.49 -2.25 L 302.49 -2.25 Q 302.57 -2.25 302.68 -2.25 L 302.68 -2.25 Q 303.86 -2.25 305.54 -3.65 L 305.54 -3.65 Q 307.57 -5.35 308.37 -7.47 L 308.37 -7.47 L 308.41 -7.6 L 310.09 -7.6 Q 308.75 -3.93 305.62 -1.64 L 305.62 -1.64 Q 302.99 0.27 300.43 0.27 L 300.43 0.27 Q 300.35 0.27 300.27 0.27 L 300.27 0.27 Q 297.6 0.21 296.49 -1.99 L 296.49 -1.99 Q 295.81 -3.28 295.81 -5.12 L 295.81 -5.12 Q 295.81 -6.36 296.13 -7.87 Z M 299.43 -27.25 L 299.43 -27.25 Q 299.49 -28.68 300.41 -29.67 L 300.41 -29.67 Q 301.46 -30.65 302.87 -30.65 L 302.87 -30.65 Q 304.25 -30.65 305.24 -29.67 L 305.24 -29.67 Q 306.27 -28.64 306.27 -27.25 Q 306.27 -25.87 305.2 -24.86 L 305.2 -24.86 Q 304.19 -23.91 302.74 -23.91 L 302.74 -23.91 Q 301.27 -23.91 300.33 -24.86 L 300.33 -24.86 Q 299.43 -25.83 299.43 -27.25 Z M 312.97 0 L 306.88 0 L 311.23 -21.5 L 317.1 -21.5 L 316.45 -18.27 Q 317.59 -19.55 319 -20.42 Q 320.42 -21.29 321.77 -21.56 L 321.77 -21.56 Q 322.44 -21.69 323.11 -21.69 L 323.11 -21.69 Q 323.74 -21.69 324.37 -21.56 L 324.37 -21.56 Q 325.63 -21.29 326.45 -20.32 Q 327.27 -19.36 327.6 -17.72 L 327.6 -17.72 Q 327.75 -17.03 327.75 -16.21 L 327.75 -16.21 Q 327.75 -15.08 327.48 -13.67 L 327.48 -13.67 Q 326.03 -6.19 325.75 -4.64 L 325.75 -4.64 Q 325.65 -4.05 325.65 -3.59 L 325.65 -3.59 Q 325.65 -2.18 326.68 -2.1 L 326.68 -2.1 Q 326.74 -2.1 326.8 -2.1 L 326.8 -2.1 Q 327.96 -2.1 329.6 -3.59 L 329.6 -3.59 Q 331.57 -5.38 332.28 -7.52 L 332.28 -7.52 L 333.96 -7.52 Q 332.41 -3.46 329.3 -1.28 L 329.3 -1.28 Q 327.06 0.27 324.94 0.27 L 324.94 0.27 Q 324.56 0.27 324.16 0.23 L 324.16 0.23 Q 321.77 -0.13 320.78 -2.44 L 320.78 -2.44 Q 320.21 -3.74 320.21 -5.5 L 320.21 -5.5 Q 320.21 -6.57 320.42 -7.79 L 320.42 -7.79 Q 320.67 -9.01 322.14 -16.82 L 322.14 -16.82 Q 322.25 -17.38 322.25 -17.83 L 322.25 -17.83 Q 322.25 -19.17 321.24 -19.23 L 321.24 -19.23 Q 321.18 -19.23 321.11 -19.23 L 321.11 -19.23 Q 319.94 -19.23 318.26 -17.76 L 318.26 -17.76 Q 316.47 -16.19 315.7 -14.28 L 315.7 -14.28 L 312.97 0 Z M 329.53 -7.6 L 329.53 -7.6 Q 329.79 -10.46 330.58 -12.83 Q 331.38 -15.2 332.48 -16.77 Q 333.59 -18.33 334.97 -19.43 Q 336.36 -20.53 337.71 -21.05 Q 339.07 -21.56 340.41 -21.63 L 340.41 -21.63 Q 342.05 -21.71 342.91 -21.71 L 342.91 -21.71 L 348.93 -21.71 L 352.55 -21.71 L 349.23 -5.5 Q 348.79 -3.09 348.36 -1.28 Q 347.93 0.52 347.2 2.54 Q 346.48 4.56 345.61 5.92 Q 344.73 7.29 343.41 8.47 Q 342.09 9.66 340.47 10.16 L 340.47 10.16 Q 338.98 10.65 336.97 10.65 L 336.97 10.65 Q 336.8 10.65 336.63 10.65 L 336.63 10.65 Q 334.43 10.6 331.76 9.85 L 331.76 9.85 L 335.73 5.71 Q 337.74 7.26 339.25 7.26 L 339.25 7.26 Q 339.99 7.26 340.62 6.89 L 340.62 6.89 L 340.79 6.19 L 342.78 -3.36 Q 341.63 -1.91 340.11 -1.01 Q 338.58 -0.1 337.05 0.15 L 337.05 0.15 Q 336.46 0.25 335.85 0.25 L 335.85 0.25 Q 334.95 0.25 334.09 0.02 L 334.09 0.02 Q 332.64 -0.36 331.57 -1.28 Q 330.5 -2.2 329.93 -3.86 L 329.93 -3.86 Q 329.49 -5.12 329.49 -6.66 L 329.49 -6.66 Q 329.49 -7.12 329.53 -7.6 Z M 335.79 -7.39 L 335.79 -7.39 Q 335.79 -7.14 335.79 -6.91 L 335.79 -6.91 Q 335.79 -5.56 336.04 -4.62 L 336.04 -4.62 Q 336.36 -3.51 337.01 -3 L 337.01 -3 Q 337.49 -2.65 338.1 -2.65 L 338.1 -2.65 Q 338.33 -2.65 338.6 -2.69 L 338.6 -2.69 Q 339.51 -2.9 340.78 -4 Q 342.05 -5.1 343.5 -7.05 L 343.5 -7.05 L 345.7 -17.93 Q 344.63 -19.93 343.01 -19.93 L 343.01 -19.93 Q 342.61 -19.93 342.19 -19.8 L 342.19 -19.8 Q 340.24 -19.25 338.52 -16.54 L 338.52 -16.54 Q 336.99 -14.13 336.27 -11 L 336.27 -11 Q 335.85 -9.03 335.79 -7.39 Z M 361.55 -5.46 L 361.55 -5.46 Q 361.45 -6.09 361.45 -6.72 L 361.45 -6.72 Q 361.45 -8.57 362.29 -10.35 L 362.29 -10.35 Q 363.38 -12.74 365.71 -13.9 L 365.71 -13.9 L 369.68 -9.85 Q 367.28 -8.94 366.19 -7.52 L 366.19 -7.52 Q 365.44 -6.53 365.44 -5.58 L 365.44 -5.58 Q 365.44 -5.17 365.58 -4.77 L 365.58 -4.77 Q 365.92 -3.78 367.07 -3.21 L 367.07 -3.21 Q 368.12 -2.69 369.53 -2.69 L 369.53 -2.69 Q 369.68 -2.69 369.8 -2.69 L 369.8 -2.69 Q 371.36 -2.73 372.81 -3.44 L 372.81 -3.44 Q 374.02 -3.95 374.99 -4.99 Q 375.96 -6.03 376.42 -7.47 L 376.42 -7.47 Q 376.61 -8 376.61 -8.55 L 376.61 -8.55 Q 376.61 -10.6 373.79 -12.85 L 373.79 -12.85 Q 372.81 -13.54 371.41 -14.56 Q 370.01 -15.58 369.72 -15.79 L 369.72 -15.79 Q 367.2 -17.83 366.02 -19.99 L 366.02 -19.99 Q 364.95 -21.92 364.91 -23.96 L 364.91 -23.96 Q 364.91 -24.04 364.91 -24.1 L 364.91 -24.1 Q 364.93 -26.08 365.98 -27.84 L 365.98 -27.84 Q 367.07 -29.69 369.24 -30.78 L 369.24 -30.78 Q 372.34 -32.31 375.75 -32.31 L 375.75 -32.31 Q 376.44 -32.31 377.15 -32.25 L 377.15 -32.25 Q 380.11 -31.94 382.28 -30.5 Q 384.44 -29.06 385.28 -26.67 L 385.28 -26.67 Q 385.68 -25.45 385.68 -23.98 L 385.68 -23.98 Q 385.68 -22.68 385.36 -21.16 L 385.36 -21.16 L 379.57 -23.73 Q 379.82 -24.38 380 -25 Q 380.18 -25.62 380.24 -26.41 L 380.24 -26.41 Q 380.26 -26.62 380.26 -26.81 L 380.26 -26.81 Q 380.26 -27.36 380.13 -27.8 L 380.13 -27.8 Q 379.97 -28.41 379.42 -28.88 Q 378.87 -29.35 377.93 -29.5 L 377.93 -29.5 Q 377.72 -29.52 377.51 -29.52 L 377.51 -29.52 Q 375.75 -29.52 374.11 -28.39 L 374.11 -28.39 Q 373.16 -27.74 372.55 -26.52 L 372.55 -26.52 Q 372.05 -25.51 372.05 -24.65 L 372.05 -24.65 Q 372.05 -24.46 372.07 -24.29 L 372.07 -24.29 Q 372.2 -23.33 372.37 -22.95 Q 372.53 -22.57 373.14 -21.79 L 373.14 -21.79 Q 374.26 -20.43 376.67 -18.92 L 376.67 -18.92 Q 376.84 -18.81 377.75 -18.19 Q 378.66 -17.57 379 -17.33 Q 379.34 -17.09 379.95 -16.62 Q 380.55 -16.15 380.97 -15.75 L 380.97 -15.75 Q 383.07 -14 383.51 -11.78 L 383.51 -11.78 Q 383.75 -10.62 383.75 -9.55 L 383.75 -9.55 Q 383.75 -6.03 381.21 -3.38 L 381.21 -3.38 Q 378.6 -0.65 374.26 0.29 L 374.26 0.29 Q 372.43 0.69 370.75 0.69 L 370.75 0.69 Q 368.52 0.69 366.53 0 L 366.53 0 Q 362.98 -1.22 361.89 -4.16 L 361.89 -4.16 Q 361.66 -4.79 361.55 -5.46 Z M 389.88 0 L 383.93 0 L 388.24 -21.5 L 394.18 -21.5 L 393.61 -18.58 Q 394.62 -19.8 395.93 -20.61 Q 397.25 -21.42 398.53 -21.63 L 398.53 -21.63 Q 399.03 -21.71 399.51 -21.69 L 399.51 -21.69 Q 400.25 -21.67 400.92 -21.5 L 400.92 -21.5 Q 402.03 -21.21 402.78 -20.11 Q 403.52 -19.02 403.63 -17.32 L 403.63 -17.32 Q 404.74 -18.83 406.1 -19.9 Q 407.45 -20.98 408.73 -21.4 L 408.73 -21.4 Q 409.65 -21.71 410.54 -21.71 L 410.54 -21.71 Q 410.87 -21.71 411.19 -21.67 L 411.19 -21.67 Q 412.36 -21.5 413.1 -20.57 Q 413.83 -19.63 414.11 -17.99 L 414.11 -17.99 Q 414.19 -17.45 414.19 -16.8 L 414.19 -16.8 Q 414.19 -15.5 413.83 -13.79 L 413.83 -13.79 L 413.14 -9.97 Q 412.97 -9.03 412.7 -7.63 Q 412.43 -6.24 412.11 -4.51 L 412.11 -4.51 Q 412.05 -4.2 412.05 -3.93 L 412.05 -3.93 Q 412.05 -2.98 412.95 -2.83 L 412.95 -2.83 Q 413.12 -2.81 413.29 -2.81 L 413.29 -2.81 Q 414.36 -2.81 415.81 -3.8 L 415.81 -3.8 Q 417.82 -5.21 418.56 -7.31 L 418.56 -7.31 L 420.24 -7.31 Q 418.81 -3.49 415.64 -1.34 L 415.64 -1.34 Q 413.27 0.25 411 0.25 L 411 0.25 Q 410.7 0.25 410.41 0.23 L 410.41 0.23 Q 407.95 0 406.99 -2.06 L 406.99 -2.06 Q 406.51 -3.11 406.51 -4.49 L 406.51 -4.49 Q 406.51 -5.35 406.69 -6.36 L 406.69 -6.36 Q 407.01 -8.1 407.68 -11.61 Q 408.35 -15.12 408.67 -16.86 L 408.67 -16.86 Q 408.81 -17.59 408.81 -18.1 L 408.81 -18.1 Q 408.81 -19.21 408.08 -19.21 L 408.08 -19.21 Q 408.06 -19.21 408.04 -19.21 L 408.04 -19.21 Q 407.05 -19.17 405.56 -17.47 L 405.56 -17.47 Q 404.2 -15.94 403.5 -14.15 L 403.5 -14.15 Q 403.44 -14 403.38 -13.79 L 403.38 -13.79 Q 403.25 -13.08 402.14 -6.79 Q 401.03 -0.5 400.92 0 L 400.92 0 L 395.25 0 Q 395.76 -2.79 396.74 -8.47 Q 397.73 -14.15 398.21 -16.73 L 398.21 -16.73 Q 398.32 -17.32 398.32 -17.78 L 398.32 -17.78 Q 398.32 -19.09 397.41 -19.13 L 397.41 -19.13 Q 397.37 -19.13 397.33 -19.13 L 397.33 -19.13 Q 396.3 -19.13 394.83 -17.64 L 394.83 -17.64 Q 393.63 -16.44 392.92 -14.97 L 392.92 -14.97 L 392.84 -14.8 L 389.88 0 Z M 416.27 -7.39 L 416.27 -7.39 Q 416.46 -9.55 416.97 -11.51 Q 417.49 -13.46 418.44 -15.27 Q 419.4 -17.09 420.69 -18.42 Q 421.98 -19.76 423.85 -20.6 Q 425.72 -21.44 427.96 -21.5 L 427.96 -21.5 L 438.84 -21.5 L 438.5 -19.86 Q 437.83 -16.48 436.8 -11.69 Q 435.77 -6.91 435.29 -4.51 L 435.29 -4.51 Q 435.19 -3.99 435.19 -3.59 L 435.19 -3.59 Q 435.19 -2.29 436.21 -2.18 L 436.21 -2.18 Q 436.32 -2.18 436.4 -2.18 L 436.4 -2.18 Q 437.56 -2.18 439.22 -3.55 L 439.22 -3.55 Q 441.23 -5.21 441.99 -7.24 L 441.99 -7.24 Q 442.01 -7.31 442.03 -7.35 L 442.03 -7.35 L 443.71 -7.35 Q 442.37 -3.78 439.28 -1.57 L 439.28 -1.57 Q 436.72 0.25 434.24 0.25 L 434.24 0.25 Q 434.12 0.25 433.97 0.25 L 433.97 0.25 Q 431.41 0.17 430.38 -1.97 L 430.38 -1.97 Q 429.94 -2.86 429.85 -4.05 L 429.85 -4.05 Q 429.01 -2.81 427.93 -1.89 Q 426.85 -0.97 425.72 -0.46 L 425.72 -0.46 Q 424.58 0.04 423.37 0.21 L 423.37 0.21 Q 422.84 0.27 422.34 0.29 L 422.34 0.29 Q 421.66 0.29 421.06 0.17 L 421.06 0.17 Q 419.96 -0.04 419.02 -0.64 Q 418.07 -1.24 417.41 -2.15 Q 416.75 -3.07 416.44 -4.41 L 416.44 -4.41 Q 416.23 -5.33 416.23 -6.38 L 416.23 -6.38 Q 416.23 -6.89 416.27 -7.39 Z M 422.42 -7.18 L 422.42 -7.18 Q 422.42 -6.97 422.42 -6.76 L 422.42 -6.76 Q 422.4 -5.42 422.65 -4.47 L 422.65 -4.47 Q 422.95 -3.4 423.6 -2.9 L 423.6 -2.9 Q 424.06 -2.54 424.67 -2.52 L 424.67 -2.52 Q 424.88 -2.52 425.13 -2.58 L 425.13 -2.58 Q 426.01 -2.77 427.28 -3.86 Q 428.55 -4.96 430 -6.89 L 430 -6.89 L 432.06 -17.55 Q 430.99 -19.51 429.41 -19.51 L 429.41 -19.51 Q 429.01 -19.51 428.57 -19.38 L 428.57 -19.38 Q 426.66 -18.81 424.98 -16.08 L 424.98 -16.08 Q 423.51 -13.73 422.86 -10.71 L 422.86 -10.71 Q 422.46 -8.78 422.42 -7.18 Z M 446.02 0 L 439.95 0 L 444.3 -21.5 L 450.2 -21.5 L 449.3 -16.82 Q 450.35 -18.58 451.53 -19.7 Q 452.72 -20.83 454.19 -21.37 L 454.19 -21.37 Q 455.11 -21.73 456.16 -21.73 L 456.16 -21.73 Q 456.75 -21.75 457.42 -21.63 L 457.42 -21.63 Q 459.23 -21.29 461.28 -20.07 L 461.28 -20.07 L 457.29 -16.78 Q 456.29 -17.51 455.24 -17.64 L 455.24 -17.64 Q 454.99 -17.66 454.75 -17.66 L 454.75 -17.66 Q 454 -17.68 453.31 -17.38 L 453.31 -17.38 Q 452.4 -17.01 451.49 -16.22 Q 450.58 -15.43 449.86 -14.51 Q 449.15 -13.58 448.43 -12.43 L 448.43 -12.43 L 446.02 0 Z M 464.73 -18.88 L 462.15 -18.88 L 463.22 -21.5 L 465.29 -21.5 L 466.45 -27.08 L 472.56 -28.3 L 471.22 -21.5 L 474.7 -21.5 L 473.46 -18.88 L 470.75 -18.88 L 467.88 -4.6 Q 467.77 -4.01 467.75 -3.57 L 467.75 -3.57 Q 467.75 -2.27 468.74 -2.18 L 468.74 -2.18 Q 468.82 -2.18 468.93 -2.18 L 468.93 -2.18 Q 470.06 -2.18 471.68 -3.59 L 471.68 -3.59 Q 473.69 -5.35 474.45 -7.52 L 474.45 -7.52 L 476.17 -7.52 Q 474.78 -3.84 471.7 -1.6 L 471.7 -1.6 Q 469.09 0.29 466.62 0.29 L 466.62 0.29 Q 466.49 0.29 466.37 0.29 L 466.37 0.29 Q 463.78 0.19 462.73 -2.04 L 462.73 -2.04 Q 462.15 -3.25 462.15 -4.96 L 462.15 -4.96 Q 462.15 -6.19 462.46 -7.71 L 462.46 -7.71 L 464.73 -18.88 Z" stroke-linecap="round" />
</g>
<g transform="matrix(1.6018439218081066 0 0 1.6018439218081066 622.342357357746 316.41192792223524)" style="" id="logo-logo"  >
	<g transform="matrix(0.23218842159034142 0 0 -0.2321884215903414 72.31865271629556 -34.44477144420776)"  >
<path style="stroke: none; stroke-width: 1; stroke-dasharray: none; stroke-linecap: butt; stroke-dashoffset: 0; stroke-linejoin: miter; stroke-miterlimit: 4; fill: rgb(255,87,88); fill-rule: nonzero; opacity: 1;"  paint-order="stroke"  transform=" translate(-971.9556995278094, -702.209732151053)" d="m 1129.49 774.832 l -19.09 25.645 l 54.53 -5.27 l 18.09 -35.961 z m -371.045 79.359 c -12.558 -10.187 -31 -8.265 -41.187 4.293 v 0 c -10.188 12.559 -8.266 31 4.293 41.188 c 12.558 10.187 31 8.266 41.187 -4.293 v 0 c 10.188 -12.559 8.266 -31 -4.293 -41.188 z m 522.015 -98.136 l -63.58 17.863 l -22.05 49.016 l -164.24 15.871 l -77.645 -54.969 l 119.845 -142.895 l -32.83 -52.3 l -193.241 240.406 c 17.465 39.016 12.961 86.168 -15.809 121.633 c -40.73 50.21 -114.449 57.89 -164.66 17.164 v 0 c -50.207 -40.731 -57.895 -114.449 -17.164 -164.66 c 24.605 -30.332 61.25 -45.028 97.477 -43.02 l 274.187 -349.742 l 160.67 256.41 l 84.45 -9.832 l 48.7 -33.172 l 6.41 66.356 l -40.52 65.871" stroke-linecap="round" />
</g>
	<g transform="matrix(0.23218842159034142 0 0 -0.2321884215903414 -38.96411949812932 0)"  >
<path style="stroke: none; stroke-width: 1; stroke-dasharray: none; stroke-linecap: butt; stroke-dashoffset: 0; stroke-linejoin: miter; stroke-miterlimit: 4; fill: rgb(255,87,88); fill-rule: nonzero; opacity: 1;"  paint-order="stroke"  transform=" translate(-492.67782920073074, -553.8613726235484)" d="m 135.512 967.914 c -12.559 -10.187 -30.996 -8.266 -41.1839 4.293 v 0 c -10.1914 12.559 -8.2656 30.993 4.293 41.183 c 12.5589 10.19 30.9959 8.27 41.1879 -4.29 v 0 c 10.183 -12.561 8.261 -30.998 -4.297 -41.186 z m 320.89 -58.219 c -12.558 -10.187 -31 -8.265 -41.187 4.293 v 0 c -10.188 12.559 -8.266 31 4.293 41.188 c 12.558 10.187 31 8.265 41.187 -4.293 v 0 c 10.188 -12.559 8.266 -31 -4.293 -41.188 z M 928.453 422.406 L 544.578 884.348 c 17.574 39.054 13.11 86.308 -15.711 121.832 c -40.73 50.21 -114.449 57.9 -164.66 17.17 v 0 C 314 982.621 306.313 908.898 347.043 858.691 c 24.648 -30.386 61.375 -45.082 97.664 -43.015 l 416.52 -513.016 l -19 -30.277 H 803.555 L 226.16 948.418 c 14.61 37.848 9.211 82.212 -18.18 115.982 c -40.73 50.21 -114.4527 57.9 -164.6597 17.17 v 0 C -6.89063 1040.84 -14.5742 967.113 26.1563 916.906 C 52.3477 884.613 92.1797 870.023 130.637 874.477 L 635.859 272.383 H 549.883 L 462.953 375.98 L 443.758 245.832 L 267.004 236.117 L 315.566 45.5703 L 527.168 0 l 21.52 136.063 l 66.257 58.785 h 270.731 l 99.679 159.082 l -56.902 68.476 v 0" stroke-linecap="round" />
</g>
</g>
</svg>